<?xml version="1.0" encoding="UTF-8" standalone="no"?>
<!-- Created with Inkscape (http://www.inkscape.org/) -->

<svg
   xmlns:dc="http://purl.org/dc/elements/1.1/"
   xmlns:cc="http://creativecommons.org/ns#"
   xmlns:rdf="http://www.w3.org/1999/02/22-rdf-syntax-ns#"
   xmlns:svg="http://www.w3.org/2000/svg"
   xmlns="http://www.w3.org/2000/svg"
   xmlns:xlink="http://www.w3.org/1999/xlink"
   xmlns:sodipodi="http://sodipodi.sourceforge.net/DTD/sodipodi-0.dtd"
   xmlns:inkscape="http://www.inkscape.org/namespaces/inkscape"
   width="5.2916665mm"
   height="5.3008361mm"
   viewBox="0 0 5.2916665 5.3008361"
   version="1.1"
   id="svg1966"
   inkscape:version="0.92.5 (2060ec1f9f, 2020-04-08)"
   sodipodi:docname="logo_glob.svg">
  <defs
     id="defs1960">
    <linearGradient
       inkscape:collect="always"
       id="linearGradient3493">
      <stop
         style="stop-color:#302718;stop-opacity:1"
         offset="0"
         id="stop3489" />
      <stop
         style="stop-color:#699e3c;stop-opacity:1"
         offset="1"
         id="stop3491" />
    </linearGradient>
    <linearGradient
       inkscape:collect="always"
       xlink:href="#linearGradient3493"
       id="linearGradient4598-1-7-2-87-3"
       x1="-162.81313"
       y1="613.70624"
       x2="-119.36346"
       y2="613.70624"
       gradientUnits="userSpaceOnUse" />
    <linearGradient
       inkscape:collect="always"
       xlink:href="#linearGradient3493"
       id="linearGradient3017"
       gradientUnits="userSpaceOnUse"
       x1="-162.81313"
       y1="613.70624"
       x2="-119.36346"
       y2="613.70624" />
    <linearGradient
       inkscape:collect="always"
       xlink:href="#linearGradient3493"
       id="linearGradient3019"
       gradientUnits="userSpaceOnUse"
       x1="-162.81313"
       y1="613.70624"
       x2="-119.36346"
       y2="613.70624" />
    <linearGradient
       inkscape:collect="always"
       xlink:href="#linearGradient3493"
       id="linearGradient3021"
       gradientUnits="userSpaceOnUse"
       x1="-162.81313"
       y1="613.70624"
       x2="-119.36346"
       y2="613.70624" />
    <linearGradient
       inkscape:collect="always"
       xlink:href="#linearGradient3493"
       id="linearGradient3023"
       gradientUnits="userSpaceOnUse"
       x1="-162.81313"
       y1="613.70624"
       x2="-119.36346"
       y2="613.70624" />
    <linearGradient
       inkscape:collect="always"
       xlink:href="#linearGradient3493"
       id="linearGradient3025"
       gradientUnits="userSpaceOnUse"
       x1="-162.81313"
       y1="613.70624"
       x2="-119.36346"
       y2="613.70624" />
    <linearGradient
       inkscape:collect="always"
       xlink:href="#linearGradient3493"
       id="linearGradient3027"
       gradientUnits="userSpaceOnUse"
       x1="-162.81313"
       y1="613.70624"
       x2="-119.36346"
       y2="613.70624" />
    <linearGradient
       inkscape:collect="always"
       xlink:href="#linearGradient3493"
       id="linearGradient3029"
       gradientUnits="userSpaceOnUse"
       x1="-162.81313"
       y1="613.70624"
       x2="-119.36346"
       y2="613.70624" />
    <linearGradient
       inkscape:collect="always"
       xlink:href="#linearGradient3493"
       id="linearGradient3031"
       gradientUnits="userSpaceOnUse"
       x1="-162.81313"
       y1="613.70624"
       x2="-119.36346"
       y2="613.70624" />
    <linearGradient
       inkscape:collect="always"
       xlink:href="#linearGradient3493"
       id="linearGradient3033"
       gradientUnits="userSpaceOnUse"
       x1="-162.81313"
       y1="613.70624"
       x2="-119.36346"
       y2="613.70624" />
    <linearGradient
       inkscape:collect="always"
       xlink:href="#linearGradient3493"
       id="linearGradient3035"
       gradientUnits="userSpaceOnUse"
       x1="-162.81313"
       y1="613.70624"
       x2="-119.36346"
       y2="613.70624" />
    <linearGradient
       inkscape:collect="always"
       xlink:href="#linearGradient3493"
       id="linearGradient3037"
       gradientUnits="userSpaceOnUse"
       x1="-162.81313"
       y1="613.70624"
       x2="-119.36346"
       y2="613.70624" />
    <linearGradient
       inkscape:collect="always"
       xlink:href="#linearGradient3493"
       id="linearGradient3039"
       gradientUnits="userSpaceOnUse"
       x1="-162.81313"
       y1="613.70624"
       x2="-119.36346"
       y2="613.70624" />
    <linearGradient
       inkscape:collect="always"
       xlink:href="#linearGradient3493"
       id="linearGradient3041"
       gradientUnits="userSpaceOnUse"
       x1="-162.81313"
       y1="613.70624"
       x2="-119.36346"
       y2="613.70624" />
    <linearGradient
       inkscape:collect="always"
       xlink:href="#linearGradient3493"
       id="linearGradient3043"
       gradientUnits="userSpaceOnUse"
       x1="-162.81313"
       y1="613.70624"
       x2="-119.36346"
       y2="613.70624" />
    <linearGradient
       inkscape:collect="always"
       xlink:href="#linearGradient3493"
       id="linearGradient3045"
       gradientUnits="userSpaceOnUse"
       x1="-162.81313"
       y1="613.70624"
       x2="-119.36346"
       y2="613.70624" />
    <linearGradient
       inkscape:collect="always"
       xlink:href="#linearGradient3493"
       id="linearGradient3047"
       gradientUnits="userSpaceOnUse"
       x1="-162.81313"
       y1="613.70624"
       x2="-119.36346"
       y2="613.70624" />
  </defs>
  <sodipodi:namedview
     id="base"
     pagecolor="#ffffff"
     bordercolor="#666666"
     borderopacity="1.0"
     inkscape:pageopacity="0.0"
     inkscape:pageshadow="2"
     inkscape:zoom="0.98994949"
     inkscape:cx="-81.84464"
     inkscape:cy="-74.038709"
     inkscape:document-units="mm"
     inkscape:current-layer="layer1"
     showgrid="false"
     fit-margin-top="0"
     fit-margin-left="0"
     fit-margin-right="0"
     fit-margin-bottom="0"
     inkscape:window-width="1306"
     inkscape:window-height="704"
     inkscape:window-x="60"
     inkscape:window-y="27"
     inkscape:window-maximized="1" />
  <metadata
     id="metadata1963">
    <rdf:RDF>
      <cc:Work
         rdf:about="">
        <dc:format>image/svg+xml</dc:format>
        <dc:type
           rdf:resource="http://purl.org/dc/dcmitype/StillImage" />
        <dc:title></dc:title>
      </cc:Work>
    </rdf:RDF>
  </metadata>
  <g
     inkscape:label="Layer 1"
     inkscape:groupmode="layer"
     id="layer1"
     transform="translate(-88.690253,-95.698224)">
    <g
       id="g3071"
       transform="matrix(0.40595567,0,0,0.40595567,52.685942,59.997919)">
      <path
         inkscape:connector-curvature="0"
         id="path2561-9-9-8-7-6"
         style="font-style:normal;font-variant:normal;font-weight:bold;font-stretch:normal;font-size:medium;line-height:4.25;font-family:'ITC Avant Garde Gothic LT';-inkscape-font-specification:'ITC Avant Garde Gothic LT Bold';letter-spacing:0px;word-spacing:0px;fill:#000000;fill-opacity:1;stroke:none;stroke-width:0.40520832"
         d="m 91.398581,94.454615 c 0,1.72116 1.227593,3.7334 3.784025,3.7334 2.556432,0 3.784033,-2.01224 3.784033,-3.7334 0,-1.72116 -1.227601,-3.7334 -3.784033,-3.7334 -2.556432,0 -3.784025,2.01224 -3.784025,3.7334 z m 2.100825,0 c 0,-1.0251 0.772004,-1.77179 1.6832,-1.77179 0.911204,0 1.683192,0.74669 1.683192,1.77179 0,1.0251 -0.771988,1.77179 -1.683192,1.77179 -0.911196,0 -1.6832,-0.74669 -1.6832,-1.77179 z" />
      <g
         style="font-style:normal;font-weight:normal;font-size:51.22896194px;line-height:1.25;font-family:sans-serif;letter-spacing:0px;word-spacing:0px;fill:url(#linearGradient4598-1-7-2-87-3);fill-opacity:1;stroke:none;stroke-width:1.28072405;stroke-opacity:1"
         id="g6479-3-4-6-6-2-6-9-0-6-1"
         transform="matrix(0.28287856,-0.28287856,0.28287856,0.28287856,-38.511656,-119.05718)"
         inkscape:export-xdpi="300"
         inkscape:export-ydpi="300">
        <path
           id="path5826-9-2-3-7-7-5-87-7-5-8-8-79-8"
           d="m -126.07246,606.06763 c -3.53347,-2.77224 -9.00676,-6.07689 -15.01589,-6.07689 -5.98256,0 -11.46879,3.34551 -15.0176,6.1521 -3.51024,2.77602 -6.70717,6.38104 -6.70717,7.5634 0,1.34766 3.07307,4.87873 6.7106,7.71073 2.88042,2.24259 8.66129,6.00478 15.01417,6.00478 6.35609,0 12.13502,-3.75692 15.01406,-5.99642 3.63765,-2.82959 6.71083,-6.36444 6.71083,-7.71909 -1.1e-4,-1.26524 -3.13511,-4.83466 -6.709,-7.63861 z m -15.01589,16.621 c -4.9608,0 -8.98226,-4.02158 -8.98226,-8.98227 0,-4.96081 4.02146,-8.98227 8.98226,-8.98227 4.96081,0 8.98227,4.02146 8.98227,8.98227 0,4.96069 -4.02146,8.98227 -8.98227,8.98227 z"
           inkscape:connector-curvature="0"
           style="fill:url(#linearGradient3017);fill-opacity:1;stroke:none;stroke-width:0.11447045;stroke-opacity:1" />
        <g
           transform="matrix(0.11447045,0,0,0.11447045,-162.81312,591.98147)"
           id="g5828-3-2-4-1-1-9-21-8-5-6-4-6-7"
           style="fill:url(#linearGradient3019);fill-opacity:1;stroke:none;stroke-opacity:1" />
        <g
           transform="matrix(0.11447045,0,0,0.11447045,-162.81312,591.98147)"
           id="g5830-8-2-1-1-3-5-9-8-1-5-7-9-9"
           style="fill:url(#linearGradient3021);fill-opacity:1;stroke:none;stroke-opacity:1" />
        <g
           transform="matrix(0.11447045,0,0,0.11447045,-162.81312,591.98147)"
           id="g5832-7-6-3-6-8-4-7-6-6-7-8-1-2"
           style="fill:url(#linearGradient3023);fill-opacity:1;stroke:none;stroke-opacity:1" />
        <g
           transform="matrix(0.11447045,0,0,0.11447045,-162.81312,591.98147)"
           id="g5834-1-2-1-8-4-9-67-4-0-6-1-7-0"
           style="fill:url(#linearGradient3025);fill-opacity:1;stroke:none;stroke-opacity:1" />
        <g
           transform="matrix(0.11447045,0,0,0.11447045,-162.81312,591.98147)"
           id="g5836-0-1-2-2-8-1-0-3-5-2-7-2-2"
           style="fill:url(#linearGradient3027);fill-opacity:1;stroke:none;stroke-opacity:1" />
        <g
           transform="matrix(0.11447045,0,0,0.11447045,-162.81312,591.98147)"
           id="g5838-5-4-1-6-0-7-81-3-8-7-0-7-3"
           style="fill:url(#linearGradient3029);fill-opacity:1;stroke:none;stroke-opacity:1" />
        <g
           transform="matrix(0.11447045,0,0,0.11447045,-162.81312,591.98147)"
           id="g5840-4-0-1-1-4-5-2-0-8-0-4-0-7"
           style="fill:url(#linearGradient3031);fill-opacity:1;stroke:none;stroke-opacity:1" />
        <g
           transform="matrix(0.11447045,0,0,0.11447045,-162.81312,591.98147)"
           id="g5842-1-6-2-8-6-5-25-4-7-3-69-0-5"
           style="fill:url(#linearGradient3033);fill-opacity:1;stroke:none;stroke-opacity:1" />
        <g
           transform="matrix(0.11447045,0,0,0.11447045,-162.81312,591.98147)"
           id="g5844-9-7-2-8-0-4-9-3-2-9-5-1-9"
           style="fill:url(#linearGradient3035);fill-opacity:1;stroke:none;stroke-opacity:1" />
        <g
           transform="matrix(0.11447045,0,0,0.11447045,-162.81312,591.98147)"
           id="g5846-0-7-8-3-3-1-1-7-1-9-3-4-2"
           style="fill:url(#linearGradient3037);fill-opacity:1;stroke:none;stroke-opacity:1" />
        <g
           transform="matrix(0.11447045,0,0,0.11447045,-162.81312,591.98147)"
           id="g5848-7-0-5-5-2-8-82-2-7-9-2-8-2"
           style="fill:url(#linearGradient3039);fill-opacity:1;stroke:none;stroke-opacity:1" />
        <g
           transform="matrix(0.11447045,0,0,0.11447045,-162.81312,591.98147)"
           id="g5850-3-8-3-5-69-8-3-9-7-1-9-71-8"
           style="fill:url(#linearGradient3041);fill-opacity:1;stroke:none;stroke-opacity:1" />
        <g
           transform="matrix(0.11447045,0,0,0.11447045,-162.81312,591.98147)"
           id="g5852-4-0-4-2-4-3-3-7-4-7-4-8-9"
           style="fill:url(#linearGradient3043);fill-opacity:1;stroke:none;stroke-opacity:1" />
        <g
           transform="matrix(0.11447045,0,0,0.11447045,-162.81312,591.98147)"
           id="g5854-8-1-8-2-1-5-06-2-5-2-1-3-7"
           style="fill:url(#linearGradient3045);fill-opacity:1;stroke:none;stroke-opacity:1" />
        <g
           transform="matrix(0.11447045,0,0,0.11447045,-162.81312,591.98147)"
           id="g5856-1-0-6-0-3-2-24-4-0-3-6-9-3"
           style="fill:url(#linearGradient3047);fill-opacity:1;stroke:none;stroke-opacity:1" />
      </g>
      <path
         inkscape:connector-curvature="0"
         id="path2561-4-7-6-6-92-6"
         style="font-style:normal;font-variant:normal;font-weight:bold;font-stretch:normal;font-size:medium;line-height:4.25;font-family:'ITC Avant Garde Gothic LT';-inkscape-font-specification:'ITC Avant Garde Gothic LT Bold';letter-spacing:0px;word-spacing:0px;fill:#ffffff;fill-opacity:1;stroke:none;stroke-width:0.40520832"
         d="m 91.398581,94.454615 c 0,1.72116 1.227593,3.7334 3.784025,3.7334 2.556432,0 3.784033,-2.01224 3.784033,-3.7334 0,-1.72116 -1.227601,-3.7334 -3.784033,-3.7334 -2.556432,0 -3.784025,2.01224 -3.784025,3.7334 z m 2.100825,0 c 0,-1.0251 0.772004,-1.77179 1.6832,-1.77179 0.911204,0 1.683192,0.74669 1.683192,1.77179 0,1.0251 -0.771988,1.77179 -1.683192,1.77179 -0.911196,0 -1.6832,-0.74669 -1.6832,-1.77179 z" />
      <g
         style="font-style:normal;font-weight:normal;font-size:51.22896194px;line-height:1.25;font-family:sans-serif;letter-spacing:0px;word-spacing:0px;fill:#000000;fill-opacity:1;stroke:none;stroke-width:1.28072405"
         id="g4602-6-5-0-3-1"
         transform="matrix(1.1331471,0,0,1.1331471,240.45561,-315.33929)">
        <ellipse
           inkscape:export-ydpi="300"
           inkscape:export-xdpi="300"
           ry="2.2338722"
           rx="2.3427045"
           cy="361.64224"
           cx="-128.20311"
           id="path6029-6-8-7-2-0-4-5-5-2-6-2"
           style="font-style:normal;font-weight:normal;font-size:51.22896194px;line-height:1.25;font-family:sans-serif;letter-spacing:0px;word-spacing:0px;fill:#302718;fill-opacity:1;stroke:none;stroke-width:0.17265217;stroke-opacity:1" />
        <path
           inkscape:export-ydpi="300"
           inkscape:export-xdpi="300"
           style="font-style:normal;font-weight:normal;font-size:51.22896194px;line-height:1.25;font-family:sans-serif;letter-spacing:0px;word-spacing:0px;fill:#ffffff;fill-opacity:1;stroke:none;stroke-width:0;stroke-miterlimit:4;stroke-dasharray:none"
           inkscape:connector-curvature="0"
           d="m -125.91792,362.36507 c -0.22832,-0.0995 -0.50854,-0.18106 -0.82442,-0.24219 0.0151,-0.15745 0.023,-0.31819 0.023,-0.4805 0,-0.16231 -0.008,-0.32304 -0.023,-0.4805 0.31588,-0.0611 0.5961,-0.14269 0.82442,-0.24221 0.0477,-0.0206 0.0684,-0.0744 0.0469,-0.11961 -0.0217,-0.0454 -0.0778,-0.0653 -0.12552,-0.0444 -0.20889,0.091 -0.47058,0.16705 -0.76655,0.2251 -0.0401,-0.29975 -0.10704,-0.58455 -0.19721,-0.84164 0.11647,-0.0535 0.2295,-0.11443 0.33839,-0.18298 0.0437,-0.0276 0.0555,-0.0834 0.0268,-0.12511 -0.0289,-0.0417 -0.0876,-0.053 -0.13126,-0.0258 -0.0964,0.0608 -0.19631,0.11511 -0.29909,0.16313 -0.0826,-0.20003 -0.18021,-0.37968 -0.29128,-0.53158 -0.0296,-0.041 -0.089,-0.051 -0.13182,-0.0224 -0.0428,0.0285 -0.0535,0.0846 -0.0236,0.12564 0.10436,0.14284 0.19626,0.31241 0.27398,0.50177 -0.28828,0.11109 -0.59565,0.17367 -0.91027,0.18414 v -0.87138 c 0,-0.0498 -0.0424,-0.0903 -0.0948,-0.0903 -0.0522,0 -0.0947,0.0404 -0.0947,0.0903 v 0.87139 c -0.3146,-0.0113 -0.62197,-0.073 -0.91026,-0.18413 0.0777,-0.18935 0.16955,-0.35893 0.27397,-0.50177 0.0297,-0.0409 0.0194,-0.0972 -0.0236,-0.12578 -0.0428,-0.0286 -0.102,-0.0185 -0.13181,0.0224 -0.11098,0.15188 -0.2087,0.33154 -0.29129,0.53158 -0.10286,-0.0481 -0.20267,-0.10242 -0.29907,-0.16313 -0.0437,-0.0277 -0.10242,-0.0161 -0.13126,0.0258 -0.0289,0.0418 -0.0168,0.0976 0.0268,0.12509 0.10885,0.0686 0.22198,0.12962 0.3384,0.18299 -0.0902,0.25709 -0.15708,0.54189 -0.19721,0.84165 -0.29598,-0.058 -0.55769,-0.13401 -0.76657,-0.22512 -0.0476,-0.0206 -0.10371,-3e-4 -0.12549,0.0444 -0.0217,0.0454 -4.2e-4,0.099 0.0468,0.11963 0.22831,0.0995 0.50853,0.18107 0.8244,0.24221 -0.0151,0.15744 -0.023,0.3182 -0.023,0.48049 0,0.1623 0.008,0.32305 0.023,0.48051 -0.31587,0.0611 -0.59609,0.14267 -0.8244,0.24223 -0.0476,0.0206 -0.0684,0.0744 -0.0468,0.11961 0.0217,0.0454 0.0779,0.0653 0.12549,0.0444 0.20888,-0.091 0.47059,-0.16706 0.76658,-0.2251 0.0402,0.29976 0.10693,0.58455 0.19722,0.84165 -0.11648,0.0535 -0.2295,0.11441 -0.33842,0.18298 -0.0437,0.0276 -0.0555,0.0835 -0.0268,0.1251 0.0289,0.0415 0.0876,0.0531 0.13126,0.0257 0.0964,-0.0608 0.19631,-0.11511 0.29907,-0.16313 0.0826,0.20004 0.18022,0.37969 0.29129,0.53157 0.0184,0.0253 0.048,0.0388 0.0777,0.0388 0.0186,0 0.0377,-0.005 0.0541,-0.0163 0.0428,-0.0285 0.0535,-0.0847 0.0236,-0.12579 -0.10436,-0.14285 -0.19626,-0.31239 -0.27399,-0.50176 0.28831,-0.1111 0.59568,-0.17367 0.91032,-0.18414 v 0.87143 c 0,0.0498 0.0424,0.0903 0.0947,0.0903 0.0524,0 0.0947,-0.0404 0.0947,-0.0903 v -0.87141 c 0.31461,0.0114 0.62201,0.073 0.91029,0.18412 -0.0777,0.18937 -0.16957,0.35897 -0.27397,0.50177 -0.0299,0.0409 -0.0195,0.0972 0.0235,0.12579 0.0165,0.0114 0.0354,0.0163 0.0541,0.0163 0.03,0 0.0595,-0.0136 0.0777,-0.0387 0.11097,-0.1519 0.2087,-0.33156 0.2913,-0.53159 0.10285,0.0481 0.20267,0.10242 0.29908,0.16315 0.016,0.009 0.0343,0.015 0.0521,0.015 0.0309,0 0.0609,-0.0143 0.0792,-0.0405 0.0289,-0.0417 0.0169,-0.0976 -0.0268,-0.1251 -0.10885,-0.0686 -0.22195,-0.12963 -0.33839,-0.18298 0.0903,-0.25709 0.15709,-0.54189 0.1972,-0.84163 0.29601,0.0579 0.5577,0.13401 0.76658,0.22509 0.0124,0.005 0.0262,0.008 0.0393,0.008 0.0359,0 0.0704,-0.0198 0.0863,-0.0527 0.0218,-0.0454 3.4e-4,-0.099 -0.0467,-0.11976 z m -0.99093,-0.72269 c 0,0.15121 -0.006,0.30078 -0.0205,0.44732 -0.36082,-0.0582 -0.76092,-0.0913 -1.17921,-0.0956 v -0.70347 c 0.41829,-0.004 0.81839,-0.0375 1.17921,-0.0956 0.0136,0.14652 0.0205,0.2961 0.0205,0.44729 z m -0.22519,-1.43051 c 0.0845,0.24451 0.14717,0.51583 0.18459,0.80201 -0.35531,0.0582 -0.75093,0.0916 -1.15907,0.0961 v -0.70341 c 0.33669,-0.0114 0.66573,-0.0765 0.97448,-0.19471 z m -2.13841,0 c 0.30876,0.11812 0.63782,0.18426 0.9745,0.19473 v 0.70338 c -0.40814,-0.004 -0.80377,-0.0381 -1.15907,-0.0962 0.0376,-0.28617 0.10006,-0.55749 0.18457,-0.802 z m -0.22515,1.43051 c 0,-0.1512 0.006,-0.30076 0.0204,-0.4473 0.36081,0.0582 0.76091,0.0913 1.1792,0.0956 v 0.70348 c -0.41829,0.004 -0.81839,0.0375 -1.1792,0.0956 -0.0137,-0.14651 -0.0204,-0.29609 -0.0204,-0.44728 z m 0.22517,1.43051 c -0.0845,-0.24452 -0.14715,-0.51583 -0.18459,-0.80198 0.3553,-0.0581 0.75093,-0.0916 1.15907,-0.0962 v 0.70339 c -0.33668,0.0114 -0.66574,0.0765 -0.97448,0.19471 z m 2.13839,0 c -0.30875,-0.11812 -0.6378,-0.18426 -0.97448,-0.19473 v -0.70338 c 0.40814,0.004 0.80376,0.0381 1.15907,0.0962 -0.0375,0.28617 -0.10006,0.55748 -0.18459,0.80201 z"
           id="path237-5-5-1-3-8-4-8-6-1-4-3-8-3-8-9" />
      </g>
    </g>
  </g>
</svg>
